<svg  width="60" height="60" viewBox="0 0 60 60" fill="none" xmlns="http://www.w3.org/2000/svg">
<g data-name="25-user">
<path d="M24 38a6 6 0 1 1 6-6 6.006 6.006 0 0 1-6 6zm0-10a4 4 0 1 0 4 4 4 4 0 0 0-4-4z" fill="#0aa471"/>
<path d="M31 48H17a1 1 0 0 1-1-1v-6a5.006 5.006 0 0 1 5-5h6a5.006 5.006 0 0 1 5 5v6a1 1 0 0 1-1 1zm-13-2h12v-5a3 3 0 0 0-3-3h-6a3 3 0 0 0-3 3zM40 33a6 6 0 1 1 6-6 6.006 6.006 0 0 1-6 6zm0-10a4 4 0 1 0 4 4 4 4 0 0 0-4-4z" fill="#0aa471"/>
<path d="M47 43H34v-2h12v-5a3 3 0 0 0-3-3h-6a3 3 0 0 0-3 3h-2a5.006 5.006 0 0 1 5-5h6a5.006 5.006 0 0 1 5 5v6a1 1 0 0 1-1 1zM8 33a6 6 0 1 1 6-6 6.006 6.006 0 0 1-6 6zm0-10a4 4 0 1 0 4 4 4 4 0 0 0-4-4z" fill="#0aa471"/>
<path d="M14 43H1a1 1 0 0 1-1-1v-6a5.006 5.006 0 0 1 5-5h6a5.006 5.006 0 0 1 5 5h-2a3 3 0 0 0-3-3H5a3 3 0 0 0-3 3v5h12zM19 24a1 1 0 0 1-.707-.293L12.586 18H3a3 3 0 0 1-3-3V3a3 3 0 0 1 3-3h22a3 3 0 0 1 3 3v12a3 3 0 0 1-3 3h-5v5a1 1 0 0 1-.617.924A.987.987 0 0 1 19 24zM3 2a1 1 0 0 0-1 1v12a1 1 0 0 0 1 1h10a1 1 0 0 1 .707.293L18 20.586V17a1 1 0 0 1 1-1h6a1 1 0 0 0 1-1V3a1 1 0 0 0-1-1zM34 19a1 1 0 0 1-1-1v-3h-3v-2h4a1 1 0 0 1 1 1v1l1.2-1.6a1 1 0 0 1 .8-.4h8a1 1 0 0 0 1-1V8a1 1 0 0 0-1-1H30V5h15a3 3 0 0 1 3 3v4a3 3 0 0 1-3 3h-7.5l-2.7 3.6a1 1 0 0 1-.8.4z" fill="#0aa471"/>
<path d="M34 9h10v2H34zM30 9h2v2h-2zM7 12a3 3 0 1 1 3-3 3 3 0 0 1-3 3zm0-4a1 1 0 1 0 1 1 1 1 0 0 0-1-1zM14 12a3 3 0 1 1 3-3 3 3 0 0 1-3 3zm0-4a1 1 0 1 0 1 1 1 1 0 0 0-1-1zM21 12a3 3 0 1 1 3-3 3 3 0 0 1-3 3zm0-4a1 1 0 1 0 1 1 1 1 0 0 0-1-1z" fill="#0aa471"/>
</g>
<defs>
<clipPath id="clip0_2434_156">
<rect width="60" height="60" fill="#0aa471"/>
</clipPath>
</defs>
</svg>